<svg width="82" height="54" viewBox="0 0 82 54" fill="none" xmlns="http://www.w3.org/2000/svg">
<path d="M13.8821 10.8L9.63742 48.6H13.5638L13.9882 44.604H19.9308L20.4084 48.6H24.3347L20.09 10.8H13.8821ZM19.5064 40.716H14.4658L16.9595 15.336L19.5064 40.716Z" fill="#FF4343"/>
<path d="M29.8133 37.8473C32.5682 37.8473 34.4162 36.4498 34.9862 33.9449H33.4144C32.9653 35.4919 31.6527 36.3883 29.822 36.3883C27.3607 36.3883 25.7975 34.4019 25.7975 31.2907C25.7975 28.2057 27.3779 26.2018 29.8133 26.2018C31.5922 26.2018 33.0172 27.2916 33.4144 28.9528H34.9862C34.5889 26.4215 32.5249 24.7428 29.8133 24.7428C26.4021 24.7428 24.2 27.3093 24.2 31.2907C24.2 35.3073 26.3762 37.8473 29.8133 37.8473ZM39.5546 36.4939C38.4751 36.4939 37.7583 35.9224 37.7583 35.0524C37.7583 34.191 38.4492 33.6461 39.6581 33.5671L42.0589 33.4177V34.1647C42.0589 35.4831 40.9707 36.4939 39.5546 36.4939ZM39.2177 37.7946C40.4268 37.7946 41.5666 37.109 42.102 36.0632H42.1366V37.6364H43.5616V31.3171C43.5616 29.4977 42.2316 28.3376 40.1245 28.3376C38.0001 28.3376 36.6701 29.5504 36.5665 31.1325H38.0173C38.2073 30.2359 38.9328 29.6823 40.09 29.6823C41.3335 29.6823 42.0589 30.3503 42.0589 31.4665V32.2311L39.4854 32.3805C37.4128 32.5036 36.2297 33.4879 36.2297 35.0524C36.2297 36.6959 37.4301 37.7946 39.2177 37.7946ZM49.8312 28.3376C48.5271 28.3376 47.4822 29.0144 46.9296 30.0427H46.895V28.4958H45.4701V40.6862H46.9727V36.151H47.0072C47.5426 37.153 48.5791 37.7946 49.8658 37.7946C52.1284 37.7946 53.6742 35.9313 53.6742 33.066C53.6742 30.2009 52.1197 28.3376 49.8312 28.3376ZM49.5377 36.4498C48.0004 36.4498 46.9641 35.1051 46.9641 33.066C46.9641 31.0358 48.0004 29.6823 49.5377 29.6823C51.1352 29.6823 52.1371 31.0006 52.1371 33.066C52.1371 35.1403 51.1352 36.4498 49.5377 36.4498ZM55.2719 37.6364H56.7744V28.4958H55.2719V37.6364ZM56.0232 26.9576C56.5413 26.9576 56.9644 26.5269 56.9644 26.0084C56.9644 25.4811 56.5413 25.0593 56.0232 25.0593C55.5137 25.0593 55.0905 25.4811 55.0905 26.0084C55.0905 26.5269 55.5137 26.9576 56.0232 26.9576ZM59.2875 26.2897V28.4958H57.9489V29.7525H59.2875V35.2633C59.2875 37.0211 59.9266 37.7067 61.5761 37.7067C61.9301 37.7067 62.3446 37.6804 62.526 37.6364V36.3531C62.4223 36.3708 62.0769 36.3971 61.9042 36.3971C61.1355 36.3971 60.7901 36.0191 60.7901 35.1843V29.7525H62.5347V28.4958H60.7901V26.2897H59.2875ZM66.9302 36.4939C65.8508 36.4939 65.1341 35.9224 65.1341 35.0524C65.1341 34.191 65.8248 33.6461 67.0339 33.5671L69.4347 33.4177V34.1647C69.4347 35.4831 68.3465 36.4939 66.9302 36.4939ZM66.5935 37.7946C67.8024 37.7946 68.9424 37.109 69.4778 36.0632H69.5124V37.6364H70.9372V31.3171C70.9372 29.4977 69.6074 28.3376 67.5002 28.3376C65.3757 28.3376 64.0459 29.5504 63.9422 31.1325H65.3931C65.5831 30.2359 66.3084 29.6823 67.4657 29.6823C68.7093 29.6823 69.4347 30.3503 69.4347 31.4665V32.2311L66.8612 32.3805C64.7885 32.5036 63.6055 33.4879 63.6055 35.0524C63.6055 36.6959 64.8059 37.7946 66.5935 37.7946ZM72.9236 37.6364H74.4263V24.9537H72.9236V37.6364Z" fill="#FF4343"/>
<path d="M82 40.5818H0V44.6727H82V40.5818Z" fill="#FF4343"/>
</svg>
